<?xml version="1.0" standalone="no"?>
<!DOCTYPE svg PUBLIC "-//W3C//DTD SVG 20010904//EN"
 "http://www.w3.org/TR/2001/REC-SVG-20010904/DTD/svg10.dtd">
<svg version="1.0" xmlns="http://www.w3.org/2000/svg"
 width="1024.000000pt" height="1024.000000pt" viewBox="0 0 1024.000000 1024.000000"
 preserveAspectRatio="xMidYMid meet">
<metadata>
Created by potrace 1.14, written by Peter Selinger 2001-2017
</metadata>
<g transform="translate(0.000000,1024.000000) scale(0.100000,-0.100000)"
fill="#000000" stroke="none">
<path d="M3700 10229 c-25 -4 -56 -10 -70 -13 -14 -3 -40 -9 -58 -12 -18 -3
-35 -10 -38 -15 -3 -5 -12 -9 -19 -9 -8 0 -39 -11 -70 -25 -30 -14 -58 -25
-61 -24 -4 0 -10 -3 -13 -8 -3 -4 -31 -24 -61 -44 -80 -52 -119 -88 -212 -192
-68 -75 -170 -273 -184 -356 -3 -14 -7 -33 -10 -41 -6 -15 -10 -39 -19 -115
-3 -22 -4 -77 -4 -122 0 -46 0 -91 0 -100 0 -10 0 -47 0 -83 1 -36 1 -72 0
-80 0 -8 0 -51 0 -95 1 -44 0 -87 0 -95 0 -8 0 -40 0 -70 0 -30 0 -62 0 -70 0
-8 0 -42 0 -75 0 -33 0 -67 0 -75 0 -8 0 -44 0 -80 1 -36 1 -72 0 -80 0 -8 0
-51 0 -95 1 -44 0 -87 0 -95 0 -8 0 -40 0 -70 0 -30 0 -62 0 -70 0 -8 0 -42 0
-75 1 -33 0 -71 -1 -85 -1 -14 -2 -29 -1 -35 0 -5 0 -66 0 -135 0 -69 0 -134
0 -145 0 -18 0 -82 -1 -180 0 -16 0 -61 1 -100 0 -38 0 -77 0 -85 0 -8 0 -73
1 -143 1 -70 1 -130 -1 -132 -2 -2 -2 -38 1 -80 6 -88 -9 -194 -36 -250 -32
-68 -124 -145 -194 -163 -35 -9 -157 -8 -180 1 -72 28 -93 41 -132 80 -60 60
-89 123 -95 210 -3 40 -5 78 -4 85 0 6 1 23 1 37 0 14 0 33 0 43 0 9 0 28 -1
42 0 14 0 31 0 38 1 6 1 20 1 30 0 9 0 31 1 47 0 17 0 39 -1 50 -1 11 -1 27 0
35 0 8 0 26 -1 40 0 14 0 32 0 40 1 8 1 24 1 35 -1 11 -1 27 -1 35 1 33 1 67
-2 103 -1 21 1 43 4 49 4 6 3 23 -1 38 -4 15 -4 33 0 40 4 6 4 27 0 46 -4 19
-4 36 0 39 9 6 1 45 -9 45 -4 0 -17 -9 -29 -20 -12 -11 -25 -20 -29 -20 -5 0
-15 -9 -23 -20 -8 -11 -20 -20 -26 -20 -7 0 -14 -4 -16 -8 -1 -4 -25 -25 -53
-46 -27 -20 -65 -49 -84 -64 -76 -62 -110 -88 -136 -107 -16 -11 -33 -25 -39
-30 -6 -6 -27 -22 -46 -35 -19 -14 -42 -32 -50 -40 -9 -8 -31 -26 -50 -40 -48
-36 -124 -113 -161 -165 -18 -25 -37 -45 -42 -45 -6 0 -7 -3 -4 -6 4 -4 -2
-19 -13 -34 -11 -16 -20 -33 -20 -39 0 -6 -3 -11 -8 -11 -6 0 -42 -72 -42 -86
0 -3 -9 -24 -19 -48 -11 -23 -22 -56 -25 -72 -2 -16 -5 -29 -6 -29 -1 0 -3 -7
-5 -15 -12 -57 -16 -83 -20 -149 -3 -41 -7 -76 -9 -78 -2 -3 -1 -17 3 -31 5
-15 5 -36 1 -47 -4 -11 -4 -29 0 -41 5 -11 5 -27 0 -34 -4 -7 -4 -25 0 -40 4
-15 4 -33 0 -40 -5 -7 -5 -23 -1 -34 4 -12 5 -32 1 -46 -4 -14 -3 -34 1 -46 4
-11 4 -27 -1 -34 -4 -7 -4 -25 0 -40 4 -15 4 -33 0 -40 -5 -7 -5 -23 -1 -34 4
-12 5 -32 1 -46 -4 -14 -3 -34 1 -46 4 -11 4 -27 -1 -34 -4 -7 -4 -25 0 -40 4
-15 4 -33 0 -40 -5 -7 -5 -23 -1 -34 4 -12 5 -32 1 -46 -4 -14 -3 -34 1 -46 4
-11 4 -27 -1 -34 -4 -7 -4 -25 0 -40 4 -15 4 -33 0 -40 -5 -7 -5 -23 -1 -34 4
-12 5 -32 1 -46 -4 -14 -3 -34 1 -46 4 -11 4 -27 -1 -34 -4 -7 -4 -25 0 -40 4
-15 4 -33 0 -40 -5 -7 -5 -22 -1 -33 4 -11 4 -39 1 -63 -4 -24 -3 -44 2 -44 5
0 7 -4 4 -8 -24 -39 13 -376 60 -550 8 -32 17 -64 19 -72 7 -32 64 -188 87
-240 36 -79 82 -174 88 -180 3 -3 15 -24 28 -47 90 -165 319 -434 471 -554 24
-19 49 -40 56 -46 8 -7 18 -13 24 -13 6 0 11 -3 11 -7 0 -5 17 -19 37 -33 21
-14 45 -30 53 -37 64 -50 112 -83 120 -83 6 0 10 -3 10 -7 0 -5 17 -19 38 -33
20 -14 39 -27 42 -30 3 -3 22 -16 42 -30 21 -14 38 -28 38 -32 0 -5 4 -8 10
-8 5 0 64 -40 129 -90 66 -49 124 -90 130 -90 5 0 11 -4 13 -8 2 -5 28 -26 58
-47 30 -21 59 -42 65 -46 5 -5 39 -30 75 -56 200 -144 212 -155 207 -179 -2
-13 0 -24 5 -24 5 0 4 -9 -2 -19 -7 -13 -7 -22 0 -26 7 -4 7 -12 0 -25 -7 -13
-7 -21 0 -25 7 -4 7 -13 0 -26 -7 -12 -7 -19 -1 -19 7 0 7 -9 1 -25 -6 -16 -6
-25 0 -25 6 0 6 -9 0 -25 -6 -16 -6 -25 1 -25 6 0 6 -7 -1 -19 -7 -13 -7 -22
0 -26 7 -4 7 -12 0 -25 -7 -13 -7 -21 0 -25 7 -4 7 -13 0 -26 -7 -12 -7 -19
-1 -19 7 0 7 -9 1 -25 -6 -16 -6 -25 0 -25 6 0 6 -9 0 -25 -6 -17 -6 -25 1
-25 6 0 7 -5 4 -11 -9 -14 -10 -113 -1 -128 4 -6 3 -11 -3 -11 -7 0 -7 -8 -1
-26 6 -14 7 -23 2 -21 -8 6 -7 -155 1 -178 4 -8 2 -15 -3 -15 -6 0 -6 -10 0
-26 6 -14 7 -23 2 -21 -8 6 -7 -155 1 -178 4 -8 2 -15 -3 -15 -6 0 -6 -9 0
-25 6 -15 6 -26 -1 -30 -5 -4 -6 -13 -1 -22 5 -8 6 -33 2 -54 -4 -22 -3 -39 2
-39 5 0 4 -9 -2 -19 -7 -13 -7 -22 0 -26 7 -4 7 -12 0 -25 -7 -13 -7 -21 0
-25 7 -4 7 -13 0 -26 -7 -12 -7 -19 -1 -19 7 0 7 -9 1 -25 -6 -16 -6 -25 0
-25 6 0 6 -9 0 -25 -6 -16 -6 -25 1 -25 6 0 6 -7 -1 -19 -7 -13 -7 -22 0 -26
7 -4 7 -12 0 -25 -7 -13 -7 -21 0 -25 7 -4 7 -13 0 -26 -7 -12 -7 -19 -1 -19
7 0 7 -9 1 -25 -6 -16 -6 -25 0 -25 6 0 6 -9 0 -25 -6 -17 -6 -25 1 -25 6 0 7
-5 4 -11 -9 -14 -10 -113 -1 -128 4 -6 3 -11 -3 -11 -7 0 -7 -8 -1 -26 6 -14
7 -23 2 -21 -8 6 -7 -155 1 -178 4 -8 2 -15 -3 -15 -6 0 -6 -10 0 -26 6 -14 7
-23 2 -21 -8 6 -7 -155 1 -178 4 -8 2 -15 -3 -15 -6 0 -6 -9 0 -25 6 -15 6
-26 0 -30 -6 -4 -7 -13 -1 -23 4 -9 6 -23 4 -29 -4 -10 512 -13 2557 -13 2557
0 2562 0 2557 20 -3 11 -1 20 3 20 5 0 5 14 0 30 -5 18 -5 30 0 30 6 0 6 10 1
23 -5 13 -6 30 -1 37 5 7 4 24 -1 37 -5 13 -5 23 1 23 5 0 5 12 0 30 -5 17 -5
30 -1 30 5 0 5 18 1 40 -4 22 -4 40 1 40 4 0 4 14 -1 30 -5 18 -5 30 0 30 6 0
6 10 1 23 -5 13 -6 30 -1 37 5 7 4 24 -1 37 -5 13 -5 23 1 23 5 0 5 12 0 30
-5 17 -6 30 -2 30 4 0 7 23 7 50 0 28 -4 50 -8 50 -5 0 -5 5 -2 10 4 6 6 34 6
63 -1 29 -1 60 -1 70 0 9 0 24 0 32 0 8 0 22 0 30 0 8 0 22 0 30 0 8 0 22 0
30 0 8 0 22 0 30 0 8 0 22 0 30 0 8 0 22 0 30 0 8 0 22 0 30 0 8 0 22 0 30 0
8 0 22 0 30 0 8 0 22 0 30 0 8 0 22 0 30 0 8 0 22 0 30 0 8 0 22 0 30 0 8 0
22 0 30 0 8 0 22 0 30 0 8 0 22 0 30 0 8 0 22 0 30 0 8 0 22 0 30 0 8 0 22 0
30 0 8 0 22 0 30 0 8 0 22 0 30 0 8 0 22 0 30 0 8 0 22 0 30 0 8 0 22 0 30 0
8 0 22 0 30 0 8 0 22 0 30 0 8 0 22 0 30 0 8 0 23 0 33 0 25 1 72 3 110 1 17
0 32 -3 32 -3 0 -5 23 -5 50 0 28 3 50 7 50 4 0 3 14 -2 30 -5 18 -5 30 0 30
6 0 6 10 1 23 -5 13 -6 30 -1 37 5 7 4 24 -1 37 -5 13 -5 23 1 23 5 0 5 12 0
30 -5 17 -5 30 -1 30 5 0 5 18 1 40 -4 22 -4 40 1 40 4 0 4 14 -1 30 -5 18 -5
30 0 30 6 0 6 10 1 23 -5 13 -6 30 -1 37 5 7 4 24 -1 37 -5 13 -5 23 1 23 5 0
5 12 0 30 -5 17 -5 30 0 30 4 0 6 8 3 18 -3 12 6 25 24 39 228 170 204 151
327 265 102 94 191 188 256 268 19 24 40 48 45 54 21 23 94 124 131 181 22 33
41 62 44 65 3 3 11 17 19 33 8 15 18 27 23 27 4 0 8 9 8 20 0 11 4 20 8 20 14
0 185 352 194 400 2 8 6 17 9 20 6 5 71 195 75 220 1 8 10 42 19 75 9 33 18
67 20 75 2 8 8 36 14 61 6 25 13 61 15 80 3 19 7 43 9 54 3 11 8 49 12 85 4
36 10 74 13 85 3 11 7 646 9 1410 3 1501 6 1380 -40 1572 -2 7 -6 16 -10 19
-4 4 -7 13 -7 20 0 22 -59 141 -103 206 -43 65 -93 124 -137 164 -64 58 -96
84 -102 84 -4 0 -13 6 -20 13 -25 22 -168 99 -168 90 0 -3 -6 0 -14 6 -8 7
-22 14 -32 16 -11 3 -53 14 -94 25 -41 11 -100 22 -131 24 -31 2 -61 6 -68 10
-6 4 -11 3 -11 -1 0 -10 -53 -9 -69 2 -6 3 -11 2 -11 -2 0 -5 -10 -9 -22 -9
-49 -1 -165 -23 -191 -36 -10 -5 -27 -11 -39 -13 -11 -3 -39 -13 -62 -25 -23
-11 -48 -20 -54 -20 -7 0 -12 -4 -12 -9 0 -5 -8 -11 -17 -15 -10 -3 -23 -9
-30 -12 -8 -3 -14 8 -19 33 -4 21 -9 43 -13 48 -3 6 -7 17 -9 25 -6 30 -8 35
-25 69 -9 19 -17 38 -17 42 0 13 -96 170 -125 204 -41 48 -139 145 -146 145
-4 0 -14 6 -22 14 -65 65 -298 168 -409 181 -10 2 -19 3 -20 5 -2 1 -28 3 -58
4 -30 1 -60 5 -66 8 -5 4 -16 3 -24 -2 -7 -4 -24 -4 -37 1 -12 5 -23 5 -23 1
0 -4 -15 -8 -32 -9 -35 -1 -102 -11 -130 -19 -9 -3 -25 -7 -36 -9 -53 -10
-231 -91 -252 -114 -3 -4 -17 -12 -32 -20 -25 -13 -150 -121 -172 -149 -6 -8
-21 -25 -33 -38 -13 -14 -23 -27 -23 -30 0 -3 -7 -12 -15 -20 -12 -12 -15 -12
-16 -2 0 7 -1 27 -2 45 -1 17 2 29 7 26 5 -4 6 -1 3 4 -4 6 -9 44 -12 86 -10
161 -59 306 -150 447 -40 61 -53 78 -109 140 -132 145 -334 252 -546 288 -98
17 -360 2 -400 -23 -6 -4 -23 -9 -37 -11 -15 -3 -43 -13 -63 -22 -19 -9 -37
-17 -40 -17 -9 -1 -95 -47 -100 -54 -3 -4 -16 -11 -30 -18 -14 -6 -47 -30 -73
-53 -26 -23 -49 -41 -51 -39 -2 2 -6 24 -9 49 -7 58 -14 92 -35 160 -9 30 -15
58 -14 63 1 4 -3 7 -9 7 -5 0 -8 4 -5 8 5 9 -80 164 -119 219 -20 27 -159 168
-186 188 -77 57 -201 123 -261 140 -5 2 -9 3 -10 5 -2 1 -10 3 -18 5 -8 3 -42
12 -75 20 -68 18 -287 27 -355 14z"/>
</g>
</svg>
